<mxfile host="app.diagrams.net" agent="Mozilla/5.0 (Windows NT 10.0; Win64; x64) AppleWebKit/537.36 (KHTML, like Gecko) Chrome/136.0.0.0 Safari/537.36" version="27.0.1">
  <diagram name="Page-1" id="5f0bae14-7c28-e335-631c-24af17079c00">
    <mxGraphModel dx="858" dy="473" grid="1" gridSize="10" guides="1" tooltips="1" connect="1" arrows="1" fold="1" page="1" pageScale="1" pageWidth="1100" pageHeight="850" background="none" math="0" shadow="0">
      <root>
        <mxCell id="0" />
        <mxCell id="1" parent="0" />
        <mxCell id="ItQFtDrcd5Q8ZGyu2tCS-9" value="Usuarios" style="swimlane;fontStyle=1;align=center;verticalAlign=top;childLayout=stackLayout;horizontal=1;startSize=26;horizontalStack=0;resizeParent=1;resizeParentMax=0;resizeLast=0;collapsible=1;marginBottom=0;whiteSpace=wrap;html=1;" vertex="1" parent="1">
          <mxGeometry x="30" y="35" width="160" height="180" as="geometry" />
        </mxCell>
        <mxCell id="ItQFtDrcd5Q8ZGyu2tCS-10" value="+ nombre: string&lt;div&gt;&lt;br&gt;&lt;/div&gt;" style="text;strokeColor=none;fillColor=none;align=left;verticalAlign=top;spacingLeft=4;spacingRight=4;overflow=hidden;rotatable=0;points=[[0,0.5],[1,0.5]];portConstraint=eastwest;whiteSpace=wrap;html=1;" vertex="1" parent="ItQFtDrcd5Q8ZGyu2tCS-9">
          <mxGeometry y="26" width="160" height="24" as="geometry" />
        </mxCell>
        <mxCell id="ItQFtDrcd5Q8ZGyu2tCS-13" value="+ Correo: string" style="text;strokeColor=none;fillColor=none;align=left;verticalAlign=top;spacingLeft=4;spacingRight=4;overflow=hidden;rotatable=0;points=[[0,0.5],[1,0.5]];portConstraint=eastwest;whiteSpace=wrap;html=1;" vertex="1" parent="ItQFtDrcd5Q8ZGyu2tCS-9">
          <mxGeometry y="50" width="160" height="26" as="geometry" />
        </mxCell>
        <mxCell id="ItQFtDrcd5Q8ZGyu2tCS-15" value="+ Contraseña: string" style="text;strokeColor=none;fillColor=none;align=left;verticalAlign=top;spacingLeft=4;spacingRight=4;overflow=hidden;rotatable=0;points=[[0,0.5],[1,0.5]];portConstraint=eastwest;whiteSpace=wrap;html=1;" vertex="1" parent="ItQFtDrcd5Q8ZGyu2tCS-9">
          <mxGeometry y="76" width="160" height="26" as="geometry" />
        </mxCell>
        <mxCell id="ItQFtDrcd5Q8ZGyu2tCS-11" value="" style="line;strokeWidth=1;fillColor=none;align=left;verticalAlign=middle;spacingTop=-1;spacingLeft=3;spacingRight=3;rotatable=0;labelPosition=right;points=[];portConstraint=eastwest;strokeColor=inherit;" vertex="1" parent="ItQFtDrcd5Q8ZGyu2tCS-9">
          <mxGeometry y="102" width="160" height="18" as="geometry" />
        </mxCell>
        <mxCell id="ItQFtDrcd5Q8ZGyu2tCS-12" value="+ registrarse()" style="text;strokeColor=none;fillColor=none;align=left;verticalAlign=top;spacingLeft=4;spacingRight=4;overflow=hidden;rotatable=0;points=[[0,0.5],[1,0.5]];portConstraint=eastwest;whiteSpace=wrap;html=1;" vertex="1" parent="ItQFtDrcd5Q8ZGyu2tCS-9">
          <mxGeometry y="120" width="160" height="30" as="geometry" />
        </mxCell>
        <mxCell id="ItQFtDrcd5Q8ZGyu2tCS-23" value="+IniciarSeccion()&amp;nbsp;" style="text;strokeColor=none;fillColor=none;align=left;verticalAlign=top;spacingLeft=4;spacingRight=4;overflow=hidden;rotatable=0;points=[[0,0.5],[1,0.5]];portConstraint=eastwest;whiteSpace=wrap;html=1;" vertex="1" parent="ItQFtDrcd5Q8ZGyu2tCS-9">
          <mxGeometry y="150" width="160" height="30" as="geometry" />
        </mxCell>
        <mxCell id="ItQFtDrcd5Q8ZGyu2tCS-17" value="FormularioRegistro" style="swimlane;fontStyle=1;align=center;verticalAlign=top;childLayout=stackLayout;horizontal=1;startSize=26;horizontalStack=0;resizeParent=1;resizeParentMax=0;resizeLast=0;collapsible=1;marginBottom=0;whiteSpace=wrap;html=1;" vertex="1" parent="1">
          <mxGeometry x="220" y="35" width="160" height="130" as="geometry" />
        </mxCell>
        <mxCell id="ItQFtDrcd5Q8ZGyu2tCS-20" value="+ btnEnviar: string" style="text;strokeColor=none;fillColor=none;align=left;verticalAlign=top;spacingLeft=4;spacingRight=4;overflow=hidden;rotatable=0;points=[[0,0.5],[1,0.5]];portConstraint=eastwest;whiteSpace=wrap;html=1;" vertex="1" parent="ItQFtDrcd5Q8ZGyu2tCS-17">
          <mxGeometry y="26" width="160" height="26" as="geometry" />
        </mxCell>
        <mxCell id="ItQFtDrcd5Q8ZGyu2tCS-21" value="" style="line;strokeWidth=1;fillColor=none;align=left;verticalAlign=middle;spacingTop=-1;spacingLeft=3;spacingRight=3;rotatable=0;labelPosition=right;points=[];portConstraint=eastwest;strokeColor=inherit;" vertex="1" parent="ItQFtDrcd5Q8ZGyu2tCS-17">
          <mxGeometry y="52" width="160" height="18" as="geometry" />
        </mxCell>
        <mxCell id="ItQFtDrcd5Q8ZGyu2tCS-22" value="+ ValidarDatos(type)" style="text;strokeColor=none;fillColor=none;align=left;verticalAlign=top;spacingLeft=4;spacingRight=4;overflow=hidden;rotatable=0;points=[[0,0.5],[1,0.5]];portConstraint=eastwest;whiteSpace=wrap;html=1;" vertex="1" parent="ItQFtDrcd5Q8ZGyu2tCS-17">
          <mxGeometry y="70" width="160" height="30" as="geometry" />
        </mxCell>
        <mxCell id="ItQFtDrcd5Q8ZGyu2tCS-24" value="+ EnviarDatos(type)" style="text;strokeColor=none;fillColor=none;align=left;verticalAlign=top;spacingLeft=4;spacingRight=4;overflow=hidden;rotatable=0;points=[[0,0.5],[1,0.5]];portConstraint=eastwest;whiteSpace=wrap;html=1;" vertex="1" parent="ItQFtDrcd5Q8ZGyu2tCS-17">
          <mxGeometry y="100" width="160" height="30" as="geometry" />
        </mxCell>
        <mxCell id="ItQFtDrcd5Q8ZGyu2tCS-29" value="&lt;p style=&quot;margin:0px;margin-top:6px;text-align:center;&quot;&gt;&lt;span style=&quot;background-color: transparent; color: light-dark(rgb(0, 0, 0), rgb(255, 255, 255));&quot;&gt;«Annotation»&amp;nbsp;&lt;/span&gt;&lt;b&gt;Websystem&lt;/b&gt;&lt;/p&gt;&lt;hr size=&quot;1&quot; style=&quot;border-style:solid;&quot;&gt;&lt;p style=&quot;text-align: center; margin: 0px 0px 0px 8px;&quot;&gt;&lt;b&gt;Internal structure&lt;/b&gt;&lt;/p&gt;" style="align=left;overflow=fill;html=1;dropTarget=0;whiteSpace=wrap;" vertex="1" parent="1">
          <mxGeometry x="50" y="240" width="300" height="320" as="geometry" />
        </mxCell>
        <mxCell id="ItQFtDrcd5Q8ZGyu2tCS-30" value="" style="shape=component;jettyWidth=8;jettyHeight=4;" vertex="1" parent="ItQFtDrcd5Q8ZGyu2tCS-29">
          <mxGeometry x="1" width="20" height="20" relative="1" as="geometry">
            <mxPoint x="-24" y="4" as="offset" />
          </mxGeometry>
        </mxCell>
        <mxCell id="ItQFtDrcd5Q8ZGyu2tCS-34" value="Articulos" style="html=1;dropTarget=0;whiteSpace=wrap;" vertex="1" parent="1">
          <mxGeometry x="125" y="300" width="150" height="60" as="geometry" />
        </mxCell>
        <mxCell id="ItQFtDrcd5Q8ZGyu2tCS-35" value="" style="shape=module;jettyWidth=8;jettyHeight=4;" vertex="1" parent="ItQFtDrcd5Q8ZGyu2tCS-34">
          <mxGeometry x="1" width="20" height="20" relative="1" as="geometry">
            <mxPoint x="-27" y="7" as="offset" />
          </mxGeometry>
        </mxCell>
        <mxCell id="ItQFtDrcd5Q8ZGyu2tCS-38" value="Web&lt;div&gt;Shopping&lt;/div&gt;" style="shape=folder;fontStyle=1;spacingTop=10;tabWidth=40;tabHeight=14;tabPosition=left;html=1;whiteSpace=wrap;" vertex="1" parent="1">
          <mxGeometry x="520" y="110" width="100" height="69" as="geometry" />
        </mxCell>
        <mxCell id="ItQFtDrcd5Q8ZGyu2tCS-39" value="Mobile&lt;div&gt;Shopping&lt;/div&gt;" style="shape=folder;fontStyle=1;spacingTop=10;tabWidth=40;tabHeight=14;tabPosition=left;html=1;whiteSpace=wrap;" vertex="1" parent="1">
          <mxGeometry x="630" y="110" width="100" height="69" as="geometry" />
        </mxCell>
        <mxCell id="ItQFtDrcd5Q8ZGyu2tCS-40" value="Phone&lt;span style=&quot;color: rgba(0, 0, 0, 0); font-family: monospace; font-size: 0px; font-weight: 400; text-align: start; text-wrap-mode: nowrap;&quot;&gt;%3CmxGraphModel%3E%3Croot%3E%3CmxCell%20id%3D%220%22%2F%3E%3CmxCell%20id%3D%221%22%20parent%3D%220%22%2F%3E%3CmxCell%20id%3D%222%22%20value%3D%22Mobile%26lt%3Bdiv%26gt%3BShopping%26lt%3B%2Fdiv%26gt%3B%22%20style%3D%22shape%3Dfolder%3BfontStyle%3D1%3BspacingTop%3D10%3BtabWidth%3D40%3BtabHeight%3D14%3BtabPosition%3Dleft%3Bhtml%3D1%3BwhiteSpace%3Dwrap%3B%22%20vertex%3D%221%22%20parent%3D%221%22%3E%3CmxGeometry%20x%3D%22630%22%20y%3D%22110%22%20width%3D%22100%22%20height%3D%2269%22%20as%3D%22geometry%22%2F%3E%3C%2FmxCell%3E%3C%2Froot%3E%3C%2FmxGraphModel%3E&lt;/span&gt;&lt;div&gt;Shopping&lt;/div&gt;" style="shape=folder;fontStyle=1;spacingTop=10;tabWidth=40;tabHeight=14;tabPosition=left;html=1;whiteSpace=wrap;" vertex="1" parent="1">
          <mxGeometry x="740" y="110" width="100" height="69" as="geometry" />
        </mxCell>
        <mxCell id="ItQFtDrcd5Q8ZGyu2tCS-41" value="Mail&lt;span style=&quot;color: rgba(0, 0, 0, 0); font-family: monospace; font-size: 0px; font-weight: 400; text-align: start; text-wrap-mode: nowrap;&quot;&gt;%3CmxGraphModel%3E%3Croot%3E%3CmxCell%20id%3D%220%22%2F%3E%3CmxCell%20id%3D%221%22%20parent%3D%220%22%2F%3E%3CmxCell%20id%3D%222%22%20value%3D%22Mobile%26lt%3Bdiv%26gt%3BShopping%26lt%3B%2Fdiv%26gt%3B%22%20style%3D%22shape%3Dfolder%3BfontStyle%3D1%3BspacingTop%3D10%3BtabWidth%3D40%3BtabHeight%3D14%3BtabPosition%3Dleft%3Bhtml%3D1%3BwhiteSpace%3Dwrap%3B%22%20vertex%3D%221%22%20parent%3D%221%22%3E%3CmxGeometry%20x%3D%22630%22%20y%3D%22110%22%20width%3D%22100%22%20height%3D%2269%22%20as%3D%22geometry%22%2F%3E%3C%2FmxCell%3E%3C%2Froot%3E%3C%2FmxGraphModel%3E&lt;/span&gt;&lt;div&gt;Shopping&lt;/div&gt;" style="shape=folder;fontStyle=1;spacingTop=10;tabWidth=40;tabHeight=14;tabPosition=left;html=1;whiteSpace=wrap;" vertex="1" parent="1">
          <mxGeometry x="850" y="110" width="100" height="69" as="geometry" />
        </mxCell>
        <mxCell id="ItQFtDrcd5Q8ZGyu2tCS-43" value="Payment" style="shape=folder;fontStyle=1;spacingTop=10;tabWidth=40;tabHeight=14;tabPosition=left;html=1;whiteSpace=wrap;" vertex="1" parent="1">
          <mxGeometry x="590" y="260" width="100" height="69" as="geometry" />
        </mxCell>
        <mxCell id="ItQFtDrcd5Q8ZGyu2tCS-44" value="Shopping&lt;div&gt;Cart&lt;/div&gt;" style="shape=folder;fontStyle=1;spacingTop=10;tabWidth=40;tabHeight=14;tabPosition=left;html=1;whiteSpace=wrap;" vertex="1" parent="1">
          <mxGeometry x="783" y="260" width="100" height="69" as="geometry" />
        </mxCell>
        <mxCell id="ItQFtDrcd5Q8ZGyu2tCS-45" value="Customer" style="shape=folder;fontStyle=1;spacingTop=10;tabWidth=40;tabHeight=14;tabPosition=left;html=1;whiteSpace=wrap;" vertex="1" parent="1">
          <mxGeometry x="590" y="392.5" width="100" height="69" as="geometry" />
        </mxCell>
        <mxCell id="ItQFtDrcd5Q8ZGyu2tCS-46" value="Inventory" style="shape=folder;fontStyle=1;spacingTop=10;tabWidth=40;tabHeight=14;tabPosition=left;html=1;whiteSpace=wrap;" vertex="1" parent="1">
          <mxGeometry x="783" y="392.5" width="100" height="69" as="geometry" />
        </mxCell>
        <mxCell id="ItQFtDrcd5Q8ZGyu2tCS-47" value="&lt;span style=&quot;font-size: 12px; text-wrap-mode: wrap; background-color: rgb(236, 236, 236);&quot;&gt;«use»&lt;/span&gt;" style="endArrow=open;endSize=12;dashed=1;html=1;rounded=0;exitX=0.25;exitY=1;exitDx=0;exitDy=0;exitPerimeter=0;entryX=0;entryY=0;entryDx=0;entryDy=41.5;entryPerimeter=0;edgeStyle=orthogonalEdgeStyle;" edge="1" parent="1" source="ItQFtDrcd5Q8ZGyu2tCS-38" target="ItQFtDrcd5Q8ZGyu2tCS-43">
          <mxGeometry x="0.6418" y="-8" width="160" relative="1" as="geometry">
            <mxPoint x="430" y="240" as="sourcePoint" />
            <mxPoint x="590" y="240" as="targetPoint" />
            <mxPoint y="1" as="offset" />
          </mxGeometry>
        </mxCell>
        <mxCell id="ItQFtDrcd5Q8ZGyu2tCS-48" value="&lt;span style=&quot;font-size: 12px; text-wrap-mode: wrap; background-color: rgb(236, 236, 236);&quot;&gt;«acces»&lt;/span&gt;" style="html=1;verticalAlign=bottom;endArrow=open;dashed=1;endSize=8;curved=0;rounded=0;entryX=0;entryY=0;entryDx=0;entryDy=41.5;entryPerimeter=0;exitX=0;exitY=0;exitDx=100;exitDy=41.5;exitPerimeter=0;" edge="1" parent="1" source="ItQFtDrcd5Q8ZGyu2tCS-43" target="ItQFtDrcd5Q8ZGyu2tCS-44">
          <mxGeometry relative="1" as="geometry">
            <mxPoint x="900" y="240" as="sourcePoint" />
            <mxPoint x="820" y="240" as="targetPoint" />
          </mxGeometry>
        </mxCell>
        <mxCell id="ItQFtDrcd5Q8ZGyu2tCS-49" value="&lt;span style=&quot;text-wrap-mode: wrap;&quot;&gt;&amp;nbsp;&lt;/span&gt;" style="text;html=1;align=center;verticalAlign=middle;resizable=0;points=[];autosize=1;strokeColor=none;fillColor=none;" vertex="1" parent="1">
          <mxGeometry x="375" y="378" width="30" height="30" as="geometry" />
        </mxCell>
        <mxCell id="ItQFtDrcd5Q8ZGyu2tCS-50" value="&lt;span style=&quot;font-size: 12px; text-wrap-mode: wrap; background-color: rgb(236, 236, 236);&quot;&gt;«import»&lt;/span&gt;" style="html=1;verticalAlign=bottom;endArrow=open;dashed=1;endSize=8;curved=0;rounded=0;entryX=0.49;entryY=0.268;entryDx=0;entryDy=0;entryPerimeter=0;exitX=0.5;exitY=1;exitDx=0;exitDy=0;exitPerimeter=0;" edge="1" parent="1">
          <mxGeometry x="0.2528" y="-29" relative="1" as="geometry">
            <mxPoint x="639" y="329" as="sourcePoint" />
            <mxPoint x="638" y="410.99199999999996" as="targetPoint" />
            <mxPoint as="offset" />
          </mxGeometry>
        </mxCell>
        <mxCell id="ItQFtDrcd5Q8ZGyu2tCS-51" value="&lt;span style=&quot;font-size: 12px; text-wrap-mode: wrap; background-color: rgb(236, 236, 236);&quot;&gt;«import»&lt;/span&gt;" style="html=1;verticalAlign=bottom;endArrow=open;dashed=1;endSize=8;curved=0;rounded=0;entryX=0.49;entryY=0.268;entryDx=0;entryDy=0;entryPerimeter=0;exitX=0.5;exitY=1;exitDx=0;exitDy=0;exitPerimeter=0;" edge="1" parent="1">
          <mxGeometry x="0.2528" y="-29" relative="1" as="geometry">
            <mxPoint x="833.5" y="326.01" as="sourcePoint" />
            <mxPoint x="832.5" y="408.00199999999995" as="targetPoint" />
            <mxPoint as="offset" />
          </mxGeometry>
        </mxCell>
        <mxCell id="ItQFtDrcd5Q8ZGyu2tCS-52" value="" style="endArrow=none;dashed=1;html=1;rounded=0;entryX=0.5;entryY=1;entryDx=0;entryDy=0;entryPerimeter=0;edgeStyle=orthogonalEdgeStyle;" edge="1" parent="1" target="ItQFtDrcd5Q8ZGyu2tCS-41">
          <mxGeometry width="50" height="50" relative="1" as="geometry">
            <mxPoint x="550" y="230" as="sourcePoint" />
            <mxPoint x="870" y="230" as="targetPoint" />
          </mxGeometry>
        </mxCell>
        <mxCell id="ItQFtDrcd5Q8ZGyu2tCS-53" value="&lt;span style=&quot;color: rgba(0, 0, 0, 0); font-family: monospace; font-size: 0px; text-align: start;&quot;&gt;%3CmxGraphModel%3E%3Croot%3E%3CmxCell%20id%3D%220%22%2F%3E%3CmxCell%20id%3D%221%22%20parent%3D%220%22%2F%3E%3CmxCell%20id%3D%222%22%20value%3D%22%26lt%3Bspan%20style%3D%26quot%3Bfont-size%3A%2012px%3B%20text-wrap-mode%3A%20wrap%3B%20background-color%3A%20rgb(236%2C%20236%2C%20236)%3B%26quot%3B%26gt%3B%C2%ABimport%C2%BB%26lt%3B%2Fspan%26gt%3B%22%20style%3D%22html%3D1%3BverticalAlign%3Dbottom%3BendArrow%3Dopen%3Bdashed%3D1%3BendSize%3D8%3Bcurved%3D0%3Brounded%3D0%3BentryX%3D0.49%3BentryY%3D0.268%3BentryDx%3D0%3BentryDy%3D0%3BentryPerimeter%3D0%3BexitX%3D0.5%3BexitY%3D1%3BexitDx%3D0%3BexitDy%3D0%3BexitPerimeter%3D0%3B%22%20edge%3D%221%22%20parent%3D%221%22%3E%3CmxGeometry%20x%3D%220.2528%22%20y%3D%22-29%22%20relative%3D%221%22%20as%3D%22geometry%22%3E%3CmxPoint%20x%3D%22639%22%20y%3D%22329%22%20as%3D%22sourcePoint%22%2F%3E%3CmxPoint%20x%3D%22638%22%20y%3D%22410.99199999999996%22%20as%3D%22targetPoint%22%2F%3E%3CmxPoint%20as%3D%22offset%22%2F%3E%3C%2FmxGeometry%3E%3C%2FmxCell%3E%3C%2Froot%3E%3C%2FmxGraphModel%3E&lt;/span&gt;" style="text;html=1;align=center;verticalAlign=middle;resizable=0;points=[];autosize=1;strokeColor=none;fillColor=none;" vertex="1" parent="1">
          <mxGeometry x="800" y="208" width="20" height="30" as="geometry" />
        </mxCell>
        <mxCell id="ItQFtDrcd5Q8ZGyu2tCS-54" value="&lt;span style=&quot;text-wrap-mode: wrap;&quot;&gt;«merge&lt;/span&gt;&lt;span style=&quot;text-wrap-mode: wrap; background-color: transparent; color: light-dark(rgb(0, 0, 0), rgb(255, 255, 255));&quot;&gt;»&lt;/span&gt;" style="text;html=1;align=center;verticalAlign=middle;resizable=0;points=[];autosize=1;strokeColor=none;fillColor=none;" vertex="1" parent="1">
          <mxGeometry x="813" y="185" width="70" height="30" as="geometry" />
        </mxCell>
        <mxCell id="ItQFtDrcd5Q8ZGyu2tCS-55" value="&lt;span style=&quot;text-wrap-mode: wrap;&quot;&gt;«merge&lt;/span&gt;&lt;span style=&quot;text-wrap-mode: wrap; background-color: transparent; color: light-dark(rgb(0, 0, 0), rgb(255, 255, 255));&quot;&gt;»&lt;/span&gt;" style="text;html=1;align=center;verticalAlign=middle;resizable=0;points=[];autosize=1;strokeColor=none;fillColor=none;" vertex="1" parent="1">
          <mxGeometry x="580" y="178" width="70" height="30" as="geometry" />
        </mxCell>
        <mxCell id="ItQFtDrcd5Q8ZGyu2tCS-56" value="" style="endArrow=none;dashed=1;html=1;rounded=0;edgeStyle=orthogonalEdgeStyle;exitX=0.5;exitY=1;exitDx=0;exitDy=0;exitPerimeter=0;entryX=0.75;entryY=1;entryDx=0;entryDy=0;entryPerimeter=0;" edge="1" parent="1" source="ItQFtDrcd5Q8ZGyu2tCS-38" target="ItQFtDrcd5Q8ZGyu2tCS-41">
          <mxGeometry width="50" height="50" relative="1" as="geometry">
            <mxPoint x="640" y="248" as="sourcePoint" />
            <mxPoint x="900" y="210" as="targetPoint" />
            <Array as="points">
              <mxPoint x="570" y="210" />
              <mxPoint x="925" y="210" />
            </Array>
          </mxGeometry>
        </mxCell>
        <mxCell id="ItQFtDrcd5Q8ZGyu2tCS-57" value="" style="endArrow=none;dashed=1;html=1;rounded=0;edgeStyle=orthogonalEdgeStyle;" edge="1" parent="1">
          <mxGeometry width="50" height="50" relative="1" as="geometry">
            <mxPoint x="671" y="179" as="sourcePoint" />
            <mxPoint x="818.5" y="179" as="targetPoint" />
            <Array as="points">
              <mxPoint x="671.5" y="210" />
              <mxPoint x="818.5" y="210" />
              <mxPoint x="818.5" y="179" />
            </Array>
          </mxGeometry>
        </mxCell>
        <mxCell id="ItQFtDrcd5Q8ZGyu2tCS-58" value="" style="endArrow=none;dashed=1;html=1;rounded=0;edgeStyle=orthogonalEdgeStyle;entryX=0.57;entryY=1.014;entryDx=0;entryDy=0;entryPerimeter=0;exitX=0.19;exitY=1;exitDx=0;exitDy=0;exitPerimeter=0;" edge="1" parent="1">
          <mxGeometry width="50" height="50" relative="1" as="geometry">
            <mxPoint x="652" y="179" as="sourcePoint" />
            <mxPoint x="800" y="179.966" as="targetPoint" />
            <Array as="points">
              <mxPoint x="652" y="231" />
              <mxPoint x="801" y="231" />
            </Array>
          </mxGeometry>
        </mxCell>
        <mxCell id="ItQFtDrcd5Q8ZGyu2tCS-61" value="&lt;span style=&quot;text-wrap-mode: wrap;&quot;&gt;«use&lt;/span&gt;&lt;span style=&quot;text-wrap-mode: wrap; background-color: transparent; color: light-dark(rgb(0, 0, 0), rgb(255, 255, 255));&quot;&gt;»&lt;/span&gt;" style="text;html=1;align=center;verticalAlign=middle;resizable=0;points=[];autosize=1;strokeColor=none;fillColor=none;" vertex="1" parent="1">
          <mxGeometry x="830" y="208" width="60" height="30" as="geometry" />
        </mxCell>
        <mxCell id="ItQFtDrcd5Q8ZGyu2tCS-62" value="&lt;span style=&quot;text-wrap-mode: wrap;&quot;&gt;«use&lt;/span&gt;&lt;span style=&quot;text-wrap-mode: wrap; background-color: transparent; color: light-dark(rgb(0, 0, 0), rgb(255, 255, 255));&quot;&gt;»&lt;/span&gt;" style="text;html=1;align=center;verticalAlign=middle;resizable=0;points=[];autosize=1;strokeColor=none;fillColor=none;" vertex="1" parent="1">
          <mxGeometry x="550" y="206" width="60" height="30" as="geometry" />
        </mxCell>
      </root>
    </mxGraphModel>
  </diagram>
</mxfile>
